<svg xmlns="http://www.w3.org/2000/svg" width="20.004" height="16.25" viewBox="0 0 20.004 16.25"><path d="M20,1.925a8.31,8.31,0,0,1-2.05,2.119q.012.235.012.531a11.788,11.788,0,0,1-1.946,6.453A12.468,12.468,0,0,1,13.671,13.7a10.473,10.473,0,0,1-3.277,1.856,11.971,11.971,0,0,1-4.1.692A11.423,11.423,0,0,1,0,14.405a8.874,8.874,0,0,0,.979.057,8.046,8.046,0,0,0,5.1-1.758,3.982,3.982,0,0,1-2.383-.819A4.033,4.033,0,0,1,2.245,9.854,4.1,4.1,0,0,0,4.1,9.785,4,4,0,0,1,1.742,8.371,3.971,3.971,0,0,1,.806,5.763V5.712a4.05,4.05,0,0,0,1.859.513A4.077,4.077,0,0,1,1.332,4.763,4,4,0,0,1,.839,2.812,4.032,4.032,0,0,1,1.394.75,11.685,11.685,0,0,0,5.136,3.779a11.4,11.4,0,0,0,4.716,1.26A4.013,4.013,0,0,1,9.744,4.1a3.953,3.953,0,0,1,1.2-2.9,4.106,4.106,0,0,1,5.9.092,8.174,8.174,0,0,0,2.605-1,3.968,3.968,0,0,1-1.8,2.271A8.2,8.2,0,0,0,20,1.925Z" fill="#fff"/></svg>