<svg xmlns="http://www.w3.org/2000/svg" width="20.037" height="20.037" viewBox="0 0 20.037 20.037"><path d="M14.1,5.884c2.675,0,2.992.01,4.048.058a5.545,5.545,0,0,1,1.86.345,3.318,3.318,0,0,1,1.9,1.9,5.545,5.545,0,0,1,.345,1.86c.048,1.056.058,1.373.058,4.048s-.01,2.992-.058,4.048a5.545,5.545,0,0,1-.345,1.86,3.318,3.318,0,0,1-1.9,1.9,5.545,5.545,0,0,1-1.86.345c-1.056.048-1.373.058-4.048.058s-2.992-.01-4.048-.058a5.545,5.545,0,0,1-1.86-.345,3.318,3.318,0,0,1-1.9-1.9,5.545,5.545,0,0,1-.345-1.86c-.048-1.056-.058-1.373-.058-4.048s.01-2.992.058-4.048a5.545,5.545,0,0,1,.345-1.86,3.318,3.318,0,0,1,1.9-1.9,5.545,5.545,0,0,1,1.86-.345c1.056-.048,1.373-.058,4.048-.058m0-1.805c-2.721,0-3.062.012-4.131.06A7.354,7.354,0,0,0,7.535,4.6,5.123,5.123,0,0,0,4.6,7.535a7.354,7.354,0,0,0-.466,2.432c-.049,1.069-.06,1.41-.06,4.131s.012,3.062.06,4.131A7.354,7.354,0,0,0,4.6,20.66a5.123,5.123,0,0,0,2.93,2.93,7.354,7.354,0,0,0,2.432.466c1.069.049,1.41.06,4.131.06s3.062-.012,4.131-.06a7.354,7.354,0,0,0,2.432-.466,5.123,5.123,0,0,0,2.93-2.93,7.354,7.354,0,0,0,.466-2.432c.049-1.069.06-1.41.06-4.131s-.012-3.062-.06-4.131a7.354,7.354,0,0,0-.466-2.432A5.123,5.123,0,0,0,20.66,4.6a7.354,7.354,0,0,0-2.432-.466c-1.069-.049-1.41-.06-4.131-.06Z" transform="translate(-4.079 -4.079)" fill="#fff"/><path d="M131.645,126.635a5.01,5.01,0,1,0,5.01,5.01A5.011,5.011,0,0,0,131.645,126.635Zm0,8.263a3.252,3.252,0,1,1,3.252-3.252A3.252,3.252,0,0,1,131.645,134.9Z" transform="translate(-121.627 -121.627)" fill="#fff"/><circle cx="1.388" cy="1.388" r="1.388" transform="translate(13.865 3.395)" fill="#fff"/></svg>