<svg xmlns="http://www.w3.org/2000/svg" width="18.715" height="15.203" viewBox="0 0 18.715 15.203"><path d="M18.715,1.8A7.775,7.775,0,0,1,16.8,3.783q.011.22.011.5a11.028,11.028,0,0,1-1.821,6.037,11.665,11.665,0,0,1-2.2,2.5,9.8,9.8,0,0,1-3.066,1.737,11.2,11.2,0,0,1-3.838.648A10.687,10.687,0,0,1,0,13.477a8.3,8.3,0,0,0,.916.053,7.528,7.528,0,0,0,4.769-1.645,3.725,3.725,0,0,1-2.23-.766A3.774,3.774,0,0,1,2.1,9.219a3.838,3.838,0,0,0,1.734-.064,3.742,3.742,0,0,1-2.2-1.323,3.715,3.715,0,0,1-.875-2.44V5.344a3.789,3.789,0,0,0,1.739.48A3.814,3.814,0,0,1,1.246,4.457,3.746,3.746,0,0,1,.785,2.631,3.772,3.772,0,0,1,1.3.7,10.932,10.932,0,0,0,4.8,3.535,10.67,10.67,0,0,0,9.217,4.714a3.754,3.754,0,0,1-.1-.874,3.7,3.7,0,0,1,1.125-2.714,3.841,3.841,0,0,1,5.517.086A7.647,7.647,0,0,0,18.2.279,3.712,3.712,0,0,1,16.509,2.4,7.673,7.673,0,0,0,18.715,1.8Z" fill="#f65b1e"/></svg>