<svg xmlns="http://www.w3.org/2000/svg" width="18.746" height="18.746" viewBox="0 0 18.746 18.746"><path d="M13.452,5.768c2.5,0,2.8.01,3.787.055a5.188,5.188,0,0,1,1.74.323,3.1,3.1,0,0,1,1.779,1.779,5.188,5.188,0,0,1,.323,1.74c.045.988.055,1.285.055,3.787s-.01,2.8-.055,3.787a5.188,5.188,0,0,1-.323,1.74,3.1,3.1,0,0,1-1.779,1.779,5.188,5.188,0,0,1-1.74.323c-.988.045-1.285.055-3.787.055s-2.8-.01-3.787-.055a5.188,5.188,0,0,1-1.74-.323A3.1,3.1,0,0,1,6.145,18.98a5.188,5.188,0,0,1-.323-1.74c-.045-.988-.055-1.285-.055-3.787s.01-2.8.055-3.787a5.188,5.188,0,0,1,.323-1.74A3.1,3.1,0,0,1,7.924,6.145a5.188,5.188,0,0,1,1.74-.323c.988-.045,1.285-.055,3.787-.055m0-1.689c-2.546,0-2.865.011-3.864.056a6.88,6.88,0,0,0-2.275.436A4.793,4.793,0,0,0,4.571,7.312a6.88,6.88,0,0,0-.436,2.275c-.046,1-.056,1.319-.056,3.864s.011,2.865.056,3.864a6.88,6.88,0,0,0,.436,2.275,4.793,4.793,0,0,0,2.741,2.741,6.88,6.88,0,0,0,2.275.436c1,.046,1.319.056,3.864.056s2.865-.011,3.864-.056a6.88,6.88,0,0,0,2.275-.436,4.793,4.793,0,0,0,2.741-2.741,6.88,6.88,0,0,0,.436-2.275c.046-1,.056-1.319.056-3.864s-.011-2.865-.056-3.864a6.88,6.88,0,0,0-.436-2.275,4.793,4.793,0,0,0-2.741-2.741,6.88,6.88,0,0,0-2.275-.436c-1-.046-1.319-.056-3.864-.056Z" transform="translate(-4.079 -4.079)" fill="#f65b1e"/><path d="M131.323,126.635a4.688,4.688,0,1,0,4.688,4.688A4.688,4.688,0,0,0,131.323,126.635Zm0,7.73a3.043,3.043,0,1,1,3.043-3.043A3.043,3.043,0,0,1,131.323,134.365Z" transform="translate(-121.95 -121.95)" fill="#f65b1e"/><circle cx="1.299" cy="1.299" r="1.299" transform="translate(12.972 3.176)" fill="#f65b1e"/></svg>